<?xml version="1.0" standalone="no"?>
<!DOCTYPE svg PUBLIC "-//W3C//DTD SVG 20010904//EN"
 "http://www.w3.org/TR/2001/REC-SVG-20010904/DTD/svg10.dtd">
<svg version="1.0" xmlns="http://www.w3.org/2000/svg"
 width="512.000000pt" height="512.000000pt" viewBox="0 0 512.000000 512.000000"
 preserveAspectRatio="xMidYMid meet">

<g transform="translate(0.000000,512.000000) scale(0.100000,-0.100000)"
fill="#000000" stroke="none">
<path d="M619 3757 c-125 -52 -196 -139 -223 -271 l-13 -61 -89 -5 c-108 -7
-177 -39 -230 -109 -64 -84 -64 -80 -64 -751 0 -671 0 -667 64 -751 53 -70
122 -102 230 -109 l89 -5 13 -61 c24 -119 96 -213 202 -262 l57 -27 610 0 610
0 57 28 c71 35 132 95 167 167 15 30 61 134 101 230 40 96 80 183 88 193 14
15 40 17 272 17 232 0 258 -2 272 -17 8 -10 54 -111 102 -225 48 -113 101
-227 117 -252 35 -52 126 -117 190 -135 33 -9 195 -11 634 -9 l590 3 57 27
c106 49 178 143 202 262 l13 61 89 5 c108 7 177 39 230 109 64 84 64 80 64
751 0 671 0 667 -64 751 -53 70 -122 102 -230 109 l-89 5 -13 61 c-24 119 -96
213 -202 262 l-57 27 -1895 2 -1895 3 -56 -23z m-229 -1197 l0 -540 -35 0 -35
0 0 540 0 540 35 0 35 0 0 -540z m4410 0 l0 -540 -35 0 -35 0 0 540 0 540 35
0 35 0 0 -540z"/>
</g>
</svg>
